# Alias OBJ Model File
# Exported from SketchUp, (c) 2000-2012 Trimble Navigation Limited
# File units = meters

mtllib car.mtl

g Mesh1 Model

usemtl FrontColor
v 0 0 -2
vt 0 78.7402
vn 0 -1 -0
v 12.6145 0 10.6145
vt -496.634 -417.893
v 0 0 98
vt 0 -3858.27
f 1/1/1 2/2/1 3/3/1

v 100 0 -2
vt -3937.01 78.7402
f 2/2/1 1/1/1 4/4/1

vt 1.49156e-15 -24.8998
vn 1.79707e-17 0.316228 -0.948683
v 22.8069 15.8505 3.2835
vt -897.909 632.891
vt -3937.01 -24.8998
f 1/5/2 5/6/2 4/7/2

v 26.0402 78.1207 24.0402
vt -1025.21 3217.09
f 5/6/2 1/5/2 6/8/2

vt -78.7402 3.93039e-16
vn -0.948683 0.316228 1.49748e-17
v 6.1996 18.5988 24.7614
vt 974.857 771.845
vt 946.466 3241.99
f 1/9/3 7/10/3 6/11/3

v 6.1996 18.5988 62.404
vt 2456.85 771.845
f 1/9/3 8/12/3 7/10/3

vt 3858.27 -1.92589e-14
f 8/12/3 1/9/3 3/13/3

v 26.0402 78.1207 45.9195
vt 1807.85 3241.99
f 9/14/3 8/12/3 3/13/3

v 18.7472 56.2415 37.3089
vt 1468.85 2334
f 8/12/3 9/14/3 10/15/3

f 10/15/3 9/14/3 6/11/3

v 47.9195 78.1207 24.0402
vt 1886.6 -946.466
vn 8.59414e-17 1 -1.22756e-15
vt 1025.21 -946.466
vt 1025.21 -1807.85
f 11/16/4 6/17/4 9/18/4

vt -1886.6 3217.09
v 38.4259 62.7076 18.9025
vt -1512.83 2577.45
f 11/19/2 12/20/2 6/8/2

v 69.664 15.8505 3.2835
vt -2742.68 632.891
f 11/19/2 13/21/2 12/20/2

f 4/7/2 13/21/2 11/19/2

f 13/21/2 4/7/2 5/6/2

vt 897.909 74.6995
vn -4.56752e-17 0.948683 0.316228
v 69.664 13.9531 8.9756
vt 2742.68 -161.521
vt 2742.68 74.6995
f 5/22/5 14/23/5 13/24/5

v 22.8069 13.9531 8.9756
vt 897.909 -161.521
f 14/23/5 5/22/5 15/25/5

vt -891.033 2775.05
vn 0.953463 -0.286039 -0.0953463
vt -440.962 771.888
vt -217.975 849.845
f 12/26/6 15/27/6 5/28/6

v 38.4259 60.8102 24.5946
vt -1114.02 2697.09
f 15/27/6 12/26/6 16/29/6

vt 433.051 1301.58
vn -0.845154 -0.507093 -0.169031
vt -191.375 -925.456
vt 652.798 1214.91
f 12/30/7 14/31/7 16/32/7

vt -411.122 -838.787
f 14/31/7 12/30/7 13/33/7

vn -4.47e-17 0.316228 -0.948683
f 16/20/8 14/21/8 15/6/8

f 5/6/2 6/8/2 12/20/2

vt 664.771 2534
vn 0.688247 0.229416 0.688247
v 78.8436 13.6618 14.6025
vt 1788.4 -73.2888
vt 2839.56 -625.894
f 11/34/9 17/35/9 4/36/9

v 37.3495 75.9029 35.3495
vt 55.6777 2444.29
f 11/34/9 18/37/9 17/35/9

vt -553.416 2534
f 9/38/9 18/37/9 11/34/9

v 16.6025 13.6618 76.8436
vt -1677.04 -73.2888
f 9/38/9 19/39/9 18/37/9

vt -2728.21 -625.894
f 19/39/9 9/38/9 3/40/9

f 4/36/9 19/39/9 3/40/9

f 19/39/9 4/36/9 17/35/9

v 73.6817 11.9412 9.44065
vt -1788.4 2360.17
vn -0.162221 0.973329 -0.162221
vt 1677.04 2655.44
vt -1788.4 2655.44
f 20/41/10 19/42/10 17/43/10

v 11.4407 11.9412 71.6817
vt 1677.04 2360.17
f 19/42/10 20/41/10 21/44/10

v 32.1877 74.1822 30.1877
f 20/35/9 22/37/9 21/39/9

vt 2848.52 -302.358
vn -0.490511 -0.551825 0.674453
vt 1723.89 2554.73
vt 2564.64 -383.586
f 17/45/11 22/46/11 20/47/11

vt 2007.78 2635.96
f 22/46/11 17/45/11 18/48/11

vt -1990.41 2696.65
vn 0.674453 -0.551825 -0.490511
vt -2547.27 -322.889
vt -1706.53 2615.42
f 18/49/12 21/50/12 22/51/12

vt -2831.15 -241.661
f 21/50/12 18/49/12 19/52/12

v 12.6145 0 67.5459
vt -496.634 -2659.29
f 3/3/1 23/53/1 4/4/1

f 23/53/1 3/3/1 2/2/1

vt -417.893 0
vn 1 0 -0
v 12.6145 5.5 67.5459
vt -2659.29 216.535
vt -2659.29 0
f 2/54/13 24/55/13 23/56/13

v 12.6145 5.5 10.6145
vt -417.893 216.535
f 24/55/13 2/54/13 25/57/13

vt 496.634 0
vn 0 0 1
v 69.5459 5.5 10.6145
vt 2738.03 216.535
vt 496.634 216.535
f 2/58/14 26/59/14 25/60/14

v 69.5459 0 10.6145
vt 2738.03 0
f 26/59/14 2/58/14 27/61/14

vt -2738.03 -417.893
f 2/2/1 4/4/1 27/62/1

f 4/4/1 23/53/1 27/62/1

vt 1529.23 0
vn -0.707107 0 -0.707107
vt -1640.58 216.535
vt -1640.58 0
f 23/63/15 26/64/15 27/65/15

vt 1529.23 216.535
f 26/64/15 23/63/15 24/66/15

f 26/62/1 24/53/1 25/2/1

f 10/15/3 6/11/3 7/10/3

vt 339.869 972.158
vn -0.0953463 -0.286039 0.953463
v 23.9649 54.5022 37.3089
vt 1084.97 2447.31
vt 880.57 2518.77
f 7/67/16 28/68/16 10/69/16

v 11.4174 16.8596 24.7614
vt 544.273 900.698
f 28/68/16 7/67/16 29/70/16

vt -974.857 -8.52651e-14
vn 0.316228 0.948683 9.47597e-18
v 11.4174 16.8596 62.404
vt -2456.85 -216.535
vt -974.857 -216.535
f 7/71/17 30/72/17 29/73/17

vt -2456.85 -8.52651e-14
f 30/72/17 7/71/17 8/74/17

vt 242.489 -614.822
vn -0.169031 -0.507093 -0.845154
vt -637.112 1025.2
vt 41.0547 -694.269
f 8/75/18 28/76/18 30/77/18

vt -435.678 1104.64
f 28/76/18 8/75/18 10/78/18

vn -0.948683 0.316228 -0
f 29/10/19 30/12/19 28/15/19

